# xmcd CD database file
#
# Track frame offsets:
#	150
#	41442
#	83971
#	125279
#	166473
#
# Disc length: 2772 seconds
#
# Revision: 0
# Processed by: cddbd v1.5.2PL0 Copyright (c) Steve Scherf et al.
# Submitted via: CDex 1.79
#
DISCID=360ad205
DTITLE=Play and Pause: Nature - Mountain Meditation
DYEAR=2007
DGENRE=New Age
TTITLE0=Serenity
TTITLE1=Paradise
TTITLE2=Healing
TTITLE3=Nirvana
TTITLE4=Tranquility
EXTD=YEAR: 2007
EXTT0=
EXTT1=
EXTT2=
EXTT3=
EXTT4=
PLAYORDER=
